<svg xmlns="http://www.w3.org/2000/svg" viewBox="84 84 2072 1528" width="2072" height="1528">
<title>full_bus.asc</title>
<style>.bg { fill: #ffffff; }
.wire { stroke: #0a4bd8; stroke-width: 1.5; fill: none; }
.sym { stroke: #111111; stroke-width: 1.5; fill: none; }
.pin { stroke: #b00020; stroke-width: 1; fill: none; }
.gnd { stroke: #0a4bd8; stroke-width: 1.5; fill: none; }
.unconnected { stroke: #0a4bd8; stroke-width: 1; fill: none; }
text { font-family: 'DejaVu Sans Mono', monospace; }
.t-attr { fill: #101010; }
.t-flag { fill: #0a4bd8; }
.t-directive { fill: #106010; }
.t-comment { fill: #505050; }
.t-placeholder { fill: #b00020; }
.missing { stroke: #b00020; stroke-width: 1.5; stroke-dasharray: 4 3; fill: none; }</style>
<rect class="bg" x="84" y="84" width="2072" height="1528"/>
<rect class="sym" x="100" y="100" width="520" height="480"/>
<rect class="sym" x="660" y="100" width="880" height="600"/>
<rect class="sym" x="1580" y="100" width="560" height="480"/>
<rect class="sym" x="100" y="760" width="600" height="600"/>
<rect class="sym" x="740" y="760" width="720" height="600"/>
<rect class="sym" x="1500" y="760" width="600" height="600"/>
<line class="wire" x1="180" y1="356" x2="180" y2="300"/>
<line class="wire" x1="180" y1="300" x2="300" y2="300"/>
<line class="wire" x1="180" y1="436" x2="180" y2="468"/>
<line class="wire" x1="180" y1="468" x2="244" y2="468"/>
<line class="wire" x1="436" y1="260" x2="436" y2="228"/>
<line class="wire" x1="436" y1="228" x2="484" y2="228"/>
<line class="wire" x1="436" y1="324" x2="436" y2="356"/>
<line class="wire" x1="436" y1="356" x2="548" y2="356"/>
<line class="wire" x1="436" y1="420" x2="436" y2="388"/>
<line class="wire" x1="436" y1="388" x2="484" y2="388"/>
<line class="wire" x1="436" y1="484" x2="436" y2="516"/>
<line class="wire" x1="436" y1="516" x2="548" y2="516"/>
<line class="wire" x1="964" y1="308" x2="820" y2="308"/>
<line class="wire" x1="1156" y1="308" x2="1156" y2="340"/>
<line class="wire" x1="1156" y1="340" x2="1220" y2="340"/>
<line class="wire" x1="1060" y1="404" x2="1060" y2="436"/>
<line class="wire" x1="1060" y1="436" x2="1124" y2="436"/>
<line class="wire" x1="756" y1="180" x2="756" y2="148"/>
<line class="wire" x1="756" y1="148" x2="804" y2="148"/>
<line class="wire" x1="756" y1="244" x2="756" y2="276"/>
<line class="wire" x1="756" y1="276" x2="868" y2="276"/>
<line class="wire" x1="1196" y1="220" x2="1196" y2="156"/>
<line class="wire" x1="1196" y1="156" x2="1244" y2="156"/>
<line class="wire" x1="1196" y1="284" x2="1196" y2="316"/>
<line class="wire" x1="1196" y1="316" x2="1244" y2="316"/>
<line class="wire" x1="1292" y1="260" x2="1292" y2="196"/>
<line class="wire" x1="1292" y1="196" x2="1340" y2="196"/>
<line class="wire" x1="1388" y1="260" x2="1388" y2="228"/>
<line class="wire" x1="1388" y1="228" x2="1436" y2="228"/>
<line class="wire" x1="964" y1="620" x2="860" y2="620"/>
<line class="wire" x1="1044" y1="620" x2="1124" y2="620"/>
<line class="wire" x1="1084" y1="620" x2="1084" y2="656"/>
<line class="wire" x1="1204" y1="620" x2="1284" y2="620"/>
<line class="wire" x1="1244" y1="620" x2="1244" y2="656"/>
<line class="wire" x1="1364" y1="620" x2="1428" y2="620"/>
<line class="wire" x1="1244" y1="620" x2="1244" y2="500"/>
<line class="wire" x1="1244" y1="500" x2="820" y2="500"/>
<line class="wire" x1="820" y1="500" x2="820" y2="372"/>
<line class="wire" x1="820" y1="372" x2="964" y2="372"/>
<line class="wire" x1="1780" y1="300" x2="1660" y2="300"/>
<line class="wire" x1="1940" y1="300" x2="1940" y2="332"/>
<line class="wire" x1="1940" y1="332" x2="2004" y2="332"/>
<line class="wire" x1="1860" y1="348" x2="1860" y2="380"/>
<line class="wire" x1="1860" y1="380" x2="1924" y2="380"/>
<line class="wire" x1="1620" y1="164" x2="1620" y2="132"/>
<line class="wire" x1="1620" y1="132" x2="1668" y2="132"/>
<line class="wire" x1="1620" y1="228" x2="1620" y2="292"/>
<line class="wire" x1="1620" y1="292" x2="1668" y2="292"/>
<line class="wire" x1="1976" y1="164" x2="1976" y2="132"/>
<line class="wire" x1="1976" y1="132" x2="2024" y2="132"/>
<line class="wire" x1="1976" y1="228" x2="1976" y2="260"/>
<line class="wire" x1="1976" y1="260" x2="2024" y2="260"/>
<line class="wire" x1="1844" y1="456" x2="1908" y2="456"/>
<line class="wire" x1="292" y1="976" x2="292" y2="1056"/>
<line class="wire" x1="292" y1="1056" x2="292" y2="1116"/>
<line class="wire" x1="292" y1="1056" x2="244" y2="1056"/>
<line class="wire" x1="292" y1="896" x2="276" y2="896"/>
<line class="wire" x1="276" y1="896" x2="164" y2="896"/>
<line class="wire" x1="292" y1="1056" x2="404" y2="1056"/>
<line class="wire" x1="484" y1="1056" x2="596" y2="1056"/>
<line class="wire" x1="596" y1="1056" x2="596" y2="1120"/>
<line class="wire" x1="988" y1="1040" x2="868" y2="1040"/>
<line class="wire" x1="1020" y1="992" x2="1020" y2="960"/>
<line class="wire" x1="1020" y1="960" x2="1084" y2="960"/>
<line class="wire" x1="1256" y1="840" x2="1256" y2="808"/>
<line class="wire" x1="1256" y1="808" x2="1304" y2="808"/>
<line class="wire" x1="1052" y1="1024" x2="1156" y2="1024"/>
<line class="wire" x1="1156" y1="1024" x2="1244" y2="1024"/>
<line class="wire" x1="1156" y1="1024" x2="1156" y2="1080"/>
<line class="wire" x1="1156" y1="1144" x2="1156" y2="1240"/>
<line class="wire" x1="1244" y1="1024" x2="1244" y2="1024"/>
<line class="wire" x1="1324" y1="1024" x2="1360" y2="1024"/>
<line class="wire" x1="988" y1="1008" x2="820" y2="1008"/>
<line class="wire" x1="820" y1="1008" x2="820" y2="1240"/>
<line class="wire" x1="820" y1="1240" x2="1156" y2="1240"/>
<line class="wire" x1="1156" y1="1240" x2="1260" y2="1240"/>
<line class="wire" x1="1916" y1="856" x2="1916" y2="824"/>
<line class="wire" x1="1916" y1="824" x2="1964" y2="824"/>
<line class="wire" x1="1916" y1="936" x2="1916" y2="968"/>
<line class="wire" x1="1916" y1="968" x2="1948" y2="968"/>
<line class="wire" x1="1948" y1="968" x2="1948" y2="1000"/>
<line class="wire" x1="1900" y1="1080" x2="1900" y2="1112"/>
<line class="wire" x1="1900" y1="1112" x2="1836" y2="1112"/>
<line class="wire" x1="1900" y1="1112" x2="1900" y2="1144"/>
<line class="wire" x1="1900" y1="1224" x2="1900" y2="1280"/>
<line class="wire" x1="1948" y1="1096" x2="1948" y2="1280"/>
<line class="wire" x1="1700" y1="1280" x2="1900" y2="1280"/>
<line class="wire" x1="1900" y1="1280" x2="1948" y2="1280"/>
<line class="wire" x1="1948" y1="1280" x2="1996" y2="1280"/>
<line class="wire" x1="1916" y1="856" x2="1916" y2="824"/>
<line class="wire" x1="1916" y1="824" x2="1980" y2="824"/>
<line class="sym" x1="172" y1="376" x2="188" y2="376"/>
<line class="sym" x1="172" y1="416" x2="188" y2="416"/>
<line class="sym" x1="180" y1="368" x2="180" y2="384"/>
<line class="sym" x1="180" y1="436" x2="180" y2="428"/>
<line class="sym" x1="180" y1="356" x2="180" y2="364"/>
<ellipse class="sym" cx="180" cy="396" rx="32" ry="32"/>
<circle class="pin" cx="180" cy="356" r="1.5"/>
<circle class="pin" cx="180" cy="436" r="1.5"/>
<line class="sym" x1="436" y1="296" x2="436" y2="324"/>
<line class="sym" x1="436" y1="288" x2="436" y2="260"/>
<line class="sym" x1="420" y1="288" x2="452" y2="288"/>
<line class="sym" x1="420" y1="296" x2="452" y2="296"/>
<circle class="pin" cx="436" cy="260" r="1.5"/>
<circle class="pin" cx="436" cy="324" r="1.5"/>
<line class="sym" x1="436" y1="456" x2="436" y2="484"/>
<line class="sym" x1="436" y1="448" x2="436" y2="420"/>
<line class="sym" x1="420" y1="448" x2="452" y2="448"/>
<line class="sym" x1="420" y1="456" x2="452" y2="456"/>
<circle class="pin" cx="436" cy="420" r="1.5"/>
<circle class="pin" cx="436" cy="484" r="1.5"/>
<rect class="sym" x="964" y="276" width="192" height="128"/>
<circle class="pin" cx="964" cy="308" r="1.5"/>
<circle class="pin" cx="1156" cy="308" r="1.5"/>
<circle class="pin" cx="1060" cy="404" r="1.5"/>
<circle class="pin" cx="964" cy="372" r="1.5"/>
<line class="sym" x1="756" y1="216" x2="756" y2="244"/>
<line class="sym" x1="756" y1="208" x2="756" y2="180"/>
<line class="sym" x1="740" y1="208" x2="772" y2="208"/>
<line class="sym" x1="740" y1="216" x2="772" y2="216"/>
<circle class="pin" cx="756" cy="180" r="1.5"/>
<circle class="pin" cx="756" cy="244" r="1.5"/>
<line class="sym" x1="1196" y1="256" x2="1196" y2="284"/>
<line class="sym" x1="1196" y1="248" x2="1196" y2="220"/>
<line class="sym" x1="1180" y1="248" x2="1212" y2="248"/>
<line class="sym" x1="1180" y1="256" x2="1212" y2="256"/>
<circle class="pin" cx="1196" cy="220" r="1.5"/>
<circle class="pin" cx="1196" cy="284" r="1.5"/>
<rect class="sym" x="1292" y="212" width="96" height="96"/>
<circle class="pin" cx="1292" cy="260" r="1.5"/>
<circle class="pin" cx="1388" cy="260" r="1.5"/>
<line class="sym" x1="972" y1="620" x2="964" y2="620"/>
<line class="sym" x1="980" y1="604" x2="972" y2="620"/>
<line class="sym" x1="996" y1="636" x2="980" y2="604"/>
<line class="sym" x1="1012" y1="604" x2="996" y2="636"/>
<line class="sym" x1="1028" y1="636" x2="1012" y2="604"/>
<line class="sym" x1="1044" y1="620" x2="1036" y2="620"/>
<line class="sym" x1="1036" y1="620" x2="1028" y2="636"/>
<circle class="pin" cx="1044" cy="620" r="1.5"/>
<circle class="pin" cx="964" cy="620" r="1.5"/>
<line class="sym" x1="1132" y1="620" x2="1124" y2="620"/>
<line class="sym" x1="1140" y1="604" x2="1132" y2="620"/>
<line class="sym" x1="1156" y1="636" x2="1140" y2="604"/>
<line class="sym" x1="1172" y1="604" x2="1156" y2="636"/>
<line class="sym" x1="1188" y1="636" x2="1172" y2="604"/>
<line class="sym" x1="1204" y1="620" x2="1196" y2="620"/>
<line class="sym" x1="1196" y1="620" x2="1188" y2="636"/>
<circle class="pin" cx="1204" cy="620" r="1.5"/>
<circle class="pin" cx="1124" cy="620" r="1.5"/>
<line class="sym" x1="1292" y1="620" x2="1284" y2="620"/>
<line class="sym" x1="1300" y1="604" x2="1292" y2="620"/>
<line class="sym" x1="1316" y1="636" x2="1300" y2="604"/>
<line class="sym" x1="1332" y1="604" x2="1316" y2="636"/>
<line class="sym" x1="1348" y1="636" x2="1332" y2="604"/>
<line class="sym" x1="1364" y1="620" x2="1356" y2="620"/>
<line class="sym" x1="1356" y1="620" x2="1348" y2="636"/>
<circle class="pin" cx="1364" cy="620" r="1.5"/>
<circle class="pin" cx="1284" cy="620" r="1.5"/>
<rect class="sym" x="1780" y="252" width="160" height="96"/>
<circle class="pin" cx="1780" cy="300" r="1.5"/>
<circle class="pin" cx="1940" cy="300" r="1.5"/>
<circle class="pin" cx="1860" cy="348" r="1.5"/>
<line class="sym" x1="1620" y1="200" x2="1620" y2="228"/>
<line class="sym" x1="1620" y1="192" x2="1620" y2="164"/>
<line class="sym" x1="1604" y1="192" x2="1636" y2="192"/>
<line class="sym" x1="1604" y1="200" x2="1636" y2="200"/>
<circle class="pin" cx="1620" cy="164" r="1.5"/>
<circle class="pin" cx="1620" cy="228" r="1.5"/>
<line class="sym" x1="1976" y1="200" x2="1976" y2="228"/>
<line class="sym" x1="1976" y1="192" x2="1976" y2="164"/>
<line class="sym" x1="1960" y1="192" x2="1992" y2="192"/>
<line class="sym" x1="1960" y1="200" x2="1992" y2="200"/>
<circle class="pin" cx="1976" cy="164" r="1.5"/>
<circle class="pin" cx="1976" cy="228" r="1.5"/>
<line class="sym" x1="1772" y1="456" x2="1764" y2="456"/>
<line class="sym" x1="1780" y1="440" x2="1772" y2="456"/>
<line class="sym" x1="1796" y1="472" x2="1780" y2="440"/>
<line class="sym" x1="1812" y1="440" x2="1796" y2="472"/>
<line class="sym" x1="1828" y1="472" x2="1812" y2="440"/>
<line class="sym" x1="1844" y1="456" x2="1836" y2="456"/>
<line class="sym" x1="1836" y1="456" x2="1828" y2="472"/>
<circle class="pin" cx="1844" cy="456" r="1.5"/>
<circle class="pin" cx="1764" cy="456" r="1.5"/>
<line class="sym" x1="292" y1="968" x2="292" y2="976"/>
<line class="sym" x1="276" y1="960" x2="292" y2="968"/>
<line class="sym" x1="308" y1="944" x2="276" y2="960"/>
<line class="sym" x1="276" y1="928" x2="308" y2="944"/>
<line class="sym" x1="308" y1="912" x2="276" y2="928"/>
<line class="sym" x1="292" y1="896" x2="292" y2="904"/>
<line class="sym" x1="292" y1="904" x2="308" y2="912"/>
<circle class="pin" cx="292" cy="896" r="1.5"/>
<circle class="pin" cx="292" cy="976" r="1.5"/>
<line class="sym" x1="292" y1="1188" x2="292" y2="1196"/>
<line class="sym" x1="276" y1="1180" x2="292" y2="1188"/>
<line class="sym" x1="308" y1="1164" x2="276" y2="1180"/>
<line class="sym" x1="276" y1="1148" x2="308" y2="1164"/>
<line class="sym" x1="308" y1="1132" x2="276" y2="1148"/>
<line class="sym" x1="292" y1="1116" x2="292" y2="1124"/>
<line class="sym" x1="292" y1="1124" x2="308" y2="1132"/>
<circle class="pin" cx="292" cy="1116" r="1.5"/>
<circle class="pin" cx="292" cy="1196" r="1.5"/>
<line class="sym" x1="412" y1="1056" x2="404" y2="1056"/>
<line class="sym" x1="420" y1="1040" x2="412" y2="1056"/>
<line class="sym" x1="436" y1="1072" x2="420" y2="1040"/>
<line class="sym" x1="452" y1="1040" x2="436" y2="1072"/>
<line class="sym" x1="468" y1="1072" x2="452" y2="1040"/>
<line class="sym" x1="484" y1="1056" x2="476" y2="1056"/>
<line class="sym" x1="476" y1="1056" x2="468" y2="1072"/>
<circle class="pin" cx="484" cy="1056" r="1.5"/>
<circle class="pin" cx="404" cy="1056" r="1.5"/>
<line class="sym" x1="596" y1="1156" x2="596" y2="1184"/>
<line class="sym" x1="596" y1="1148" x2="596" y2="1120"/>
<line class="sym" x1="580" y1="1148" x2="612" y2="1148"/>
<line class="sym" x1="580" y1="1156" x2="612" y2="1156"/>
<circle class="pin" cx="596" cy="1120" r="1.5"/>
<circle class="pin" cx="596" cy="1184" r="1.5"/>
<line class="sym" x1="988" y1="992" x2="1052" y2="1024"/>
<line class="sym" x1="988" y1="1056" x2="1052" y2="1024"/>
<line class="sym" x1="988" y1="992" x2="988" y2="1056"/>
<line class="sym" x1="992" y1="1008" x2="1000" y2="1008"/>
<line class="sym" x1="992" y1="1040" x2="1000" y2="1040"/>
<line class="sym" x1="996" y1="1044" x2="996" y2="1036"/>
<line class="sym" x1="1020" y1="992" x2="1020" y2="1008"/>
<line class="sym" x1="1020" y1="1056" x2="1020" y2="1040"/>
<line class="sym" x1="1024" y1="1004" x2="1032" y2="1004"/>
<line class="sym" x1="1028" y1="1000" x2="1028" y2="1008"/>
<line class="sym" x1="1024" y1="1044" x2="1032" y2="1044"/>
<circle class="pin" cx="988" cy="1040" r="1.5"/>
<circle class="pin" cx="988" cy="1008" r="1.5"/>
<circle class="pin" cx="1020" cy="992" r="1.5"/>
<circle class="pin" cx="1020" cy="1056" r="1.5"/>
<circle class="pin" cx="1052" cy="1024" r="1.5"/>
<line class="sym" x1="1256" y1="876" x2="1256" y2="904"/>
<line class="sym" x1="1256" y1="868" x2="1256" y2="840"/>
<line class="sym" x1="1240" y1="868" x2="1272" y2="868"/>
<line class="sym" x1="1240" y1="876" x2="1272" y2="876"/>
<circle class="pin" cx="1256" cy="840" r="1.5"/>
<circle class="pin" cx="1256" cy="904" r="1.5"/>
<line class="sym" x1="1156" y1="1116" x2="1156" y2="1144"/>
<line class="sym" x1="1156" y1="1108" x2="1156" y2="1080"/>
<line class="sym" x1="1140" y1="1108" x2="1172" y2="1108"/>
<line class="sym" x1="1140" y1="1116" x2="1172" y2="1116"/>
<circle class="pin" cx="1156" cy="1080" r="1.5"/>
<circle class="pin" cx="1156" cy="1144" r="1.5"/>
<line class="sym" x1="1252" y1="1024" x2="1244" y2="1024"/>
<line class="sym" x1="1260" y1="1008" x2="1252" y2="1024"/>
<line class="sym" x1="1276" y1="1040" x2="1260" y2="1008"/>
<line class="sym" x1="1292" y1="1008" x2="1276" y2="1040"/>
<line class="sym" x1="1308" y1="1040" x2="1292" y2="1008"/>
<line class="sym" x1="1324" y1="1024" x2="1316" y2="1024"/>
<line class="sym" x1="1316" y1="1024" x2="1308" y2="1040"/>
<circle class="pin" cx="1324" cy="1024" r="1.5"/>
<circle class="pin" cx="1244" cy="1024" r="1.5"/>
<line class="sym" x1="1916" y1="928" x2="1916" y2="936"/>
<line class="sym" x1="1900" y1="920" x2="1916" y2="928"/>
<line class="sym" x1="1932" y1="904" x2="1900" y2="920"/>
<line class="sym" x1="1900" y1="888" x2="1932" y2="904"/>
<line class="sym" x1="1932" y1="872" x2="1900" y2="888"/>
<line class="sym" x1="1916" y1="856" x2="1916" y2="864"/>
<line class="sym" x1="1916" y1="864" x2="1932" y2="872"/>
<circle class="pin" cx="1916" cy="856" r="1.5"/>
<circle class="pin" cx="1916" cy="936" r="1.5"/>
<line class="sym" x1="1948" y1="1048" x2="1948" y2="1096"/>
<line class="sym" x1="1916" y1="1080" x2="1948" y2="1080"/>
<line class="sym" x1="1940" y1="1048" x2="1948" y2="1048"/>
<line class="sym" x1="1916" y1="1048" x2="1940" y2="1044"/>
<line class="sym" x1="1916" y1="1048" x2="1940" y2="1052"/>
<line class="sym" x1="1940" y1="1044" x2="1940" y2="1052"/>
<line class="sym" x1="1916" y1="1008" x2="1916" y2="1024"/>
<line class="sym" x1="1916" y1="1040" x2="1916" y2="1056"/>
<line class="sym" x1="1916" y1="1072" x2="1916" y2="1088"/>
<line class="sym" x1="1900" y1="1080" x2="1908" y2="1080"/>
<line class="sym" x1="1908" y1="1016" x2="1908" y2="1080"/>
<line class="sym" x1="1948" y1="1016" x2="1916" y2="1016"/>
<line class="sym" x1="1948" y1="1000" x2="1948" y2="1016"/>
<circle class="pin" cx="1948" cy="1000" r="1.5"/>
<circle class="pin" cx="1900" cy="1080" r="1.5"/>
<circle class="pin" cx="1948" cy="1096" r="1.5"/>
<line class="sym" x1="1900" y1="1216" x2="1900" y2="1224"/>
<line class="sym" x1="1884" y1="1208" x2="1900" y2="1216"/>
<line class="sym" x1="1916" y1="1192" x2="1884" y2="1208"/>
<line class="sym" x1="1884" y1="1176" x2="1916" y2="1192"/>
<line class="sym" x1="1916" y1="1160" x2="1884" y2="1176"/>
<line class="sym" x1="1900" y1="1144" x2="1900" y2="1152"/>
<line class="sym" x1="1900" y1="1152" x2="1916" y2="1160"/>
<circle class="pin" cx="1900" cy="1144" r="1.5"/>
<circle class="pin" cx="1900" cy="1224" r="1.5"/>
<line class="sym" x1="1996" y1="1352" x2="1996" y2="1360"/>
<line class="sym" x1="1980" y1="1344" x2="1996" y2="1352"/>
<line class="sym" x1="2012" y1="1328" x2="1980" y2="1344"/>
<line class="sym" x1="1980" y1="1312" x2="2012" y2="1328"/>
<line class="sym" x1="2012" y1="1296" x2="1980" y2="1312"/>
<line class="sym" x1="1996" y1="1280" x2="1996" y2="1288"/>
<line class="sym" x1="1996" y1="1288" x2="2012" y2="1296"/>
<circle class="pin" cx="1996" cy="1280" r="1.5"/>
<circle class="pin" cx="1996" cy="1360" r="1.5"/>
<text class="t-flag" x="304" y="303" text-anchor="start" font-size="11">V_BUS</text>
<text class="t-flag" x="248" y="471" text-anchor="start" font-size="11">PGND</text>
<text class="t-flag" x="488" y="231" text-anchor="start" font-size="11">V_BUS</text>
<text class="t-flag" x="552" y="359" text-anchor="start" font-size="11">PGND</text>
<text class="t-flag" x="488" y="391" text-anchor="start" font-size="11">V_BUS</text>
<text class="t-flag" x="552" y="519" text-anchor="start" font-size="11">PGND</text>
<text class="t-flag" x="816" y="311" text-anchor="end" font-size="11">V_BUS</text>
<text class="t-flag" x="1224" y="343" text-anchor="start" font-size="11">BONE_P</text>
<text class="t-flag" x="1128" y="439" text-anchor="start" font-size="11">PGND</text>
<text class="t-flag" x="808" y="151" text-anchor="start" font-size="11">V_BUS</text>
<text class="t-flag" x="872" y="279" text-anchor="start" font-size="11">PGND</text>
<text class="t-flag" x="1248" y="159" text-anchor="start" font-size="11">BONE_P</text>
<text class="t-flag" x="1248" y="319" text-anchor="start" font-size="11">PGND</text>
<text class="t-flag" x="1344" y="199" text-anchor="start" font-size="11">V_BUS</text>
<text class="t-flag" x="1440" y="231" text-anchor="start" font-size="11">PGND</text>
<text class="t-flag" x="856" y="623" text-anchor="end" font-size="11">BONE_P</text>
<text class="t-flag" x="1087" y="660" text-anchor="end" font-size="11" transform="rotate(-90,1087,660)">FB_TOP</text>
<text class="t-flag" x="1247" y="660" text-anchor="end" font-size="11" transform="rotate(-90,1247,660)">FB</text>
<text class="t-flag" x="1432" y="623" text-anchor="start" font-size="11">PGND</text>
<text class="t-flag" x="1656" y="303" text-anchor="end" font-size="11">BONE_P</text>
<text class="t-flag" x="2008" y="335" text-anchor="start" font-size="11">V3V3</text>
<text class="t-flag" x="1928" y="383" text-anchor="start" font-size="11">PGND</text>
<text class="t-flag" x="1672" y="135" text-anchor="start" font-size="11">BONE_P</text>
<text class="t-flag" x="1672" y="295" text-anchor="start" font-size="11">PGND</text>
<text class="t-flag" x="2028" y="135" text-anchor="start" font-size="11">V3V3</text>
<text class="t-flag" x="2028" y="263" text-anchor="start" font-size="11">PGND</text>
<polygon class="gnd" points="1758,456 1770,456 1764,466"/>
<text class="t-flag" x="1912" y="459" text-anchor="start" font-size="11">PGND</text>
<text class="t-flag" x="240" y="1059" text-anchor="end" font-size="11">DIV</text>
<polygon class="gnd" points="286,1196 298,1196 292,1206"/>
<text class="t-flag" x="212" y="892" text-anchor="middle" font-size="11">V3V3</text>
<text class="t-flag" x="540" y="1052" text-anchor="middle" font-size="11">I_SET</text>
<polygon class="gnd" points="590,1184 602,1184 596,1194"/>
<text class="t-flag" x="864" y="1043" text-anchor="end" font-size="11">I_SET</text>
<text class="t-flag" x="1088" y="963" text-anchor="start" font-size="11">V3V3</text>
<polygon class="gnd" points="1014,1056 1026,1056 1020,1066"/>
<text class="t-flag" x="1308" y="811" text-anchor="start" font-size="11">V3V3</text>
<polygon class="gnd" points="1250,904 1262,904 1256,914"/>
<text class="t-flag" x="1092" y="1020" text-anchor="middle" font-size="11">OUTA</text>
<text class="t-flag" x="1364" y="1027" text-anchor="start" font-size="11">STIM_GATE</text>
<text class="t-flag" x="860" y="1236" text-anchor="middle" font-size="11">I_SENSE</text>
<text class="t-flag" x="1964" y="820" text-anchor="middle" font-size="11">BONE_P</text>
<text class="t-flag" x="1932" y="964" text-anchor="middle" font-size="11">BONE_N</text>
<text class="t-flag" x="1832" y="1115" text-anchor="end" font-size="11">STIM_GATE</text>
<polygon class="gnd" points="1990,1360 2002,1360 1996,1370"/>
<text class="t-flag" x="1696" y="1283" text-anchor="end" font-size="11">I_SENSE</text>
<text class="t-attr" x="204" y="356" text-anchor="start" font-size="14">VBUS</text>
<text class="t-attr" x="204" y="436" text-anchor="start" font-size="14">12</text>
<text class="t-attr" x="444" y="268" text-anchor="start" font-size="14">C5</text>
<text class="t-attr" x="444" y="316" text-anchor="start" font-size="14">1u</text>
<text class="t-attr" x="444" y="428" text-anchor="start" font-size="14">C6</text>
<text class="t-attr" x="444" y="476" text-anchor="start" font-size="14">100n</text>
<text class="t-attr" x="1060" y="236" text-anchor="middle" font-size="14">U1</text>
<text class="t-attr" x="1060" y="204" text-anchor="middle" font-size="14">ST715_APPROX</text>
<text class="t-attr" x="764" y="188" text-anchor="start" font-size="14">C7</text>
<text class="t-attr" x="764" y="236" text-anchor="start" font-size="14">100n</text>
<text class="t-attr" x="1204" y="228" text-anchor="start" font-size="14">C8</text>
<text class="t-attr" x="1204" y="276" text-anchor="start" font-size="14">470n</text>
<text class="t-attr" x="1340" y="348" text-anchor="middle" font-size="14">D5</text>
<text class="t-attr" x="1340" y="380" text-anchor="middle" font-size="14">VESD16_APPROX</text>
<text class="t-attr" x="1004" y="604" text-anchor="end" font-size="14" transform="rotate(-90,1004,604)">R1</text>
<text class="t-attr" x="1004" y="636" text-anchor="end" font-size="14" transform="rotate(-90,1004,636)">560k</text>
<text class="t-attr" x="1164" y="604" text-anchor="end" font-size="14" transform="rotate(-90,1164,604)">R2</text>
<text class="t-attr" x="1164" y="636" text-anchor="end" font-size="14" transform="rotate(-90,1164,636)">6.8k</text>
<text class="t-attr" x="1324" y="604" text-anchor="end" font-size="14" transform="rotate(-90,1324,604)">R3</text>
<text class="t-attr" x="1324" y="636" text-anchor="end" font-size="14" transform="rotate(-90,1324,636)">100k</text>
<text class="t-attr" x="1860" y="212" text-anchor="middle" font-size="14">U2</text>
<text class="t-attr" x="1860" y="180" text-anchor="middle" font-size="14">MCP1703A33_APPROX</text>
<text class="t-attr" x="1628" y="172" text-anchor="start" font-size="14">C9</text>
<text class="t-attr" x="1628" y="220" text-anchor="start" font-size="14">100n</text>
<text class="t-attr" x="1984" y="172" text-anchor="start" font-size="14">C10</text>
<text class="t-attr" x="1984" y="220" text-anchor="start" font-size="14">1u</text>
<text class="t-attr" x="1804" y="440" text-anchor="end" font-size="14" transform="rotate(-90,1804,440)">R4</text>
<text class="t-attr" x="1804" y="472" text-anchor="end" font-size="14" transform="rotate(-90,1804,472)">1m</text>
<text class="t-attr" x="312" y="920" text-anchor="start" font-size="14">R5</text>
<text class="t-attr" x="312" y="956" text-anchor="start" font-size="14">100k</text>
<text class="t-attr" x="312" y="1140" text-anchor="start" font-size="14">R7</text>
<text class="t-attr" x="312" y="1176" text-anchor="start" font-size="14">10k</text>
<text class="t-attr" x="444" y="1040" text-anchor="end" font-size="14" transform="rotate(-90,444,1040)">R6</text>
<text class="t-attr" x="444" y="1072" text-anchor="end" font-size="14" transform="rotate(-90,444,1072)">10k</text>
<text class="t-attr" x="604" y="1128" text-anchor="start" font-size="14">C12</text>
<text class="t-attr" x="604" y="1176" text-anchor="start" font-size="14">100n</text>
<text class="t-attr" x="1036" y="992" text-anchor="start" font-size="14">U3</text>
<text class="t-attr" x="1036" y="1056" text-anchor="start" font-size="14">OPAx333</text>
<text class="t-attr" x="1264" y="848" text-anchor="start" font-size="14">C13</text>
<text class="t-attr" x="1264" y="896" text-anchor="start" font-size="14">100n</text>
<text class="t-attr" x="1164" y="1088" text-anchor="start" font-size="14">C14</text>
<text class="t-attr" x="1164" y="1136" text-anchor="start" font-size="14">100p</text>
<text class="t-attr" x="1284" y="1008" text-anchor="end" font-size="14" transform="rotate(-90,1284,1008)">R8</text>
<text class="t-attr" x="1284" y="1040" text-anchor="end" font-size="14" transform="rotate(-90,1284,1040)">10k</text>
<text class="t-attr" x="1936" y="880" text-anchor="start" font-size="14">R_BONE</text>
<text class="t-attr" x="1936" y="916" text-anchor="start" font-size="14">10k</text>
<text class="t-attr" x="1956" y="1032" text-anchor="start" font-size="14">Q1</text>
<text class="t-attr" x="1956" y="1072" text-anchor="start" font-size="14">N7002</text>
<text class="t-attr" x="1920" y="1168" text-anchor="start" font-size="14">R9</text>
<text class="t-attr" x="1920" y="1204" text-anchor="start" font-size="14">10Meg</text>
<text class="t-attr" x="2016" y="1304" text-anchor="start" font-size="14">R10</text>
<text class="t-attr" x="2016" y="1340" text-anchor="start" font-size="14">3k</text>
<text class="t-directive" x="100" y="1400" text-anchor="start" font-size="14"><tspan x="100" dy="0">.include models/OPAx333.LIB</tspan></text>
<text class="t-directive" x="100" y="1432" text-anchor="start" font-size="14"><tspan x="100" dy="0">.include models/2N7002_DIODES.lib</tspan></text>
<text class="t-directive" x="100" y="1464" text-anchor="start" font-size="14"><tspan x="100" dy="0">.include models/APPROX_NOT_VENDOR.lib</tspan></text>
<text class="t-directive" x="100" y="1496" text-anchor="start" font-size="14"><tspan x="100" dy="0">.include inc/solver.inc</tspan></text>
<text class="t-directive" x="100" y="1528" text-anchor="start" font-size="14"><tspan x="100" dy="0">.dc VBUS 4 16 0.25</tspan></text>
<text class="t-directive" x="100" y="1560" text-anchor="start" font-size="14"><tspan x="100" dy="0">.save V(V_BUS) V(BONE_P) V(V3V3) V(I_SET) V(I_SENSE) V(OUTA) V(BONE_N) I(R_BONE) I(VBUS)</tspan></text>
<text class="t-directive" x="100" y="1592" text-anchor="start" font-size="14"><tspan x="100" dy="0">.options plotwinsize=0 numdgt=7</tspan></text>
</svg>
