<svg xmlns="http://www.w3.org/2000/svg" viewBox="84 84 1792 704" width="1792" height="704">
<title>sink_vendor.asc</title>
<style>.bg { fill: #ffffff; }
.wire { stroke: #0a4bd8; stroke-width: 1.5; fill: none; }
.sym { stroke: #111111; stroke-width: 1.5; fill: none; }
.pin { stroke: #b00020; stroke-width: 1; fill: none; }
.gnd { stroke: #0a4bd8; stroke-width: 1.5; fill: none; }
.unconnected { stroke: #0a4bd8; stroke-width: 1; fill: none; }
text { font-family: 'DejaVu Sans Mono', monospace; }
.t-attr { fill: #101010; }
.t-flag { fill: #0a4bd8; }
.t-directive { fill: #106010; }
.t-comment { fill: #505050; }
.t-placeholder { fill: #b00020; }
.missing { stroke: #b00020; stroke-width: 1.5; stroke-dasharray: 4 3; fill: none; }</style>
<rect class="bg" x="84" y="84" width="1792" height="704"/>
<rect class="sym" x="100" y="100" width="480" height="560"/>
<rect class="sym" x="620" y="100" width="680" height="560"/>
<rect class="sym" x="1340" y="100" width="520" height="560"/>
<line class="wire" x1="292" y1="316" x2="292" y2="380"/>
<line class="wire" x1="292" y1="340" x2="244" y2="340"/>
<line class="wire" x1="164" y1="416" x2="164" y2="236"/>
<line class="wire" x1="164" y1="236" x2="292" y2="236"/>
<line class="wire" x1="292" y1="380" x2="324" y2="380"/>
<line class="wire" x1="404" y1="380" x2="468" y2="380"/>
<line class="wire" x1="468" y1="380" x2="468" y2="444"/>
<line class="wire" x1="868" y1="360" x2="780" y2="360"/>
<line class="wire" x1="900" y1="312" x2="900" y2="280"/>
<line class="wire" x1="900" y1="280" x2="964" y2="280"/>
<line class="wire" x1="1076" y1="200" x2="1076" y2="168"/>
<line class="wire" x1="1076" y1="168" x2="1124" y2="168"/>
<line class="wire" x1="932" y1="344" x2="980" y2="344"/>
<line class="wire" x1="980" y1="344" x2="1004" y2="344"/>
<line class="wire" x1="980" y1="344" x2="980" y2="400"/>
<line class="wire" x1="980" y1="464" x2="980" y2="540"/>
<line class="wire" x1="1004" y1="344" x2="1004" y2="344"/>
<line class="wire" x1="1084" y1="344" x2="1120" y2="344"/>
<line class="wire" x1="868" y1="328" x2="740" y2="328"/>
<line class="wire" x1="740" y1="328" x2="740" y2="540"/>
<line class="wire" x1="740" y1="540" x2="816" y2="540"/>
<line class="wire" x1="816" y1="540" x2="980" y2="540"/>
<line class="wire" x1="980" y1="540" x2="1060" y2="540"/>
<line class="wire" x1="1668" y1="240" x2="1668" y2="208"/>
<line class="wire" x1="1668" y1="208" x2="1740" y2="208"/>
<line class="wire" x1="1620" y1="320" x2="1480" y2="320"/>
<line class="wire" x1="1620" y1="320" x2="1620" y2="384"/>
<line class="wire" x1="1620" y1="464" x2="1620" y2="500"/>
<line class="wire" x1="1668" y1="336" x2="1668" y2="500"/>
<line class="wire" x1="1540" y1="500" x2="1620" y2="500"/>
<line class="wire" x1="1620" y1="500" x2="1756" y2="500"/>
<line class="wire" x1="1756" y1="500" x2="1668" y2="500"/>
<line class="wire" x1="1516" y1="256" x2="1516" y2="224"/>
<line class="wire" x1="1516" y1="224" x2="1564" y2="224"/>
<line class="wire" x1="1516" y1="336" x2="1516" y2="368"/>
<line class="wire" x1="1516" y1="368" x2="1564" y2="368"/>
<line class="wire" x1="1396" y1="256" x2="1516" y2="256"/>
<line class="sym" x1="292" y1="308" x2="292" y2="316"/>
<line class="sym" x1="276" y1="300" x2="292" y2="308"/>
<line class="sym" x1="308" y1="284" x2="276" y2="300"/>
<line class="sym" x1="276" y1="268" x2="308" y2="284"/>
<line class="sym" x1="308" y1="252" x2="276" y2="268"/>
<line class="sym" x1="292" y1="236" x2="292" y2="244"/>
<line class="sym" x1="292" y1="244" x2="308" y2="252"/>
<circle class="pin" cx="292" cy="236" r="1.5"/>
<circle class="pin" cx="292" cy="316" r="1.5"/>
<line class="sym" x1="292" y1="452" x2="292" y2="460"/>
<line class="sym" x1="276" y1="444" x2="292" y2="452"/>
<line class="sym" x1="308" y1="428" x2="276" y2="444"/>
<line class="sym" x1="276" y1="412" x2="308" y2="428"/>
<line class="sym" x1="308" y1="396" x2="276" y2="412"/>
<line class="sym" x1="292" y1="380" x2="292" y2="388"/>
<line class="sym" x1="292" y1="388" x2="308" y2="396"/>
<circle class="pin" cx="292" cy="380" r="1.5"/>
<circle class="pin" cx="292" cy="460" r="1.5"/>
<line class="sym" x1="156" y1="436" x2="172" y2="436"/>
<line class="sym" x1="156" y1="476" x2="172" y2="476"/>
<line class="sym" x1="164" y1="428" x2="164" y2="444"/>
<line class="sym" x1="164" y1="496" x2="164" y2="488"/>
<line class="sym" x1="164" y1="416" x2="164" y2="424"/>
<ellipse class="sym" cx="164" cy="456" rx="32" ry="32"/>
<circle class="pin" cx="164" cy="416" r="1.5"/>
<circle class="pin" cx="164" cy="496" r="1.5"/>
<line class="sym" x1="332" y1="380" x2="324" y2="380"/>
<line class="sym" x1="340" y1="364" x2="332" y2="380"/>
<line class="sym" x1="356" y1="396" x2="340" y2="364"/>
<line class="sym" x1="372" y1="364" x2="356" y2="396"/>
<line class="sym" x1="388" y1="396" x2="372" y2="364"/>
<line class="sym" x1="404" y1="380" x2="396" y2="380"/>
<line class="sym" x1="396" y1="380" x2="388" y2="396"/>
<circle class="pin" cx="404" cy="380" r="1.5"/>
<circle class="pin" cx="324" cy="380" r="1.5"/>
<line class="sym" x1="468" y1="480" x2="468" y2="508"/>
<line class="sym" x1="468" y1="472" x2="468" y2="444"/>
<line class="sym" x1="452" y1="472" x2="484" y2="472"/>
<line class="sym" x1="452" y1="480" x2="484" y2="480"/>
<circle class="pin" cx="468" cy="444" r="1.5"/>
<circle class="pin" cx="468" cy="508" r="1.5"/>
<line class="sym" x1="868" y1="312" x2="932" y2="344"/>
<line class="sym" x1="868" y1="376" x2="932" y2="344"/>
<line class="sym" x1="868" y1="312" x2="868" y2="376"/>
<line class="sym" x1="872" y1="328" x2="880" y2="328"/>
<line class="sym" x1="872" y1="360" x2="880" y2="360"/>
<line class="sym" x1="876" y1="364" x2="876" y2="356"/>
<line class="sym" x1="900" y1="312" x2="900" y2="328"/>
<line class="sym" x1="900" y1="376" x2="900" y2="360"/>
<line class="sym" x1="904" y1="324" x2="912" y2="324"/>
<line class="sym" x1="908" y1="320" x2="908" y2="328"/>
<line class="sym" x1="904" y1="364" x2="912" y2="364"/>
<circle class="pin" cx="868" cy="360" r="1.5"/>
<circle class="pin" cx="868" cy="328" r="1.5"/>
<circle class="pin" cx="900" cy="312" r="1.5"/>
<circle class="pin" cx="900" cy="376" r="1.5"/>
<circle class="pin" cx="932" cy="344" r="1.5"/>
<line class="sym" x1="1076" y1="236" x2="1076" y2="264"/>
<line class="sym" x1="1076" y1="228" x2="1076" y2="200"/>
<line class="sym" x1="1060" y1="228" x2="1092" y2="228"/>
<line class="sym" x1="1060" y1="236" x2="1092" y2="236"/>
<circle class="pin" cx="1076" cy="200" r="1.5"/>
<circle class="pin" cx="1076" cy="264" r="1.5"/>
<line class="sym" x1="980" y1="436" x2="980" y2="464"/>
<line class="sym" x1="980" y1="428" x2="980" y2="400"/>
<line class="sym" x1="964" y1="428" x2="996" y2="428"/>
<line class="sym" x1="964" y1="436" x2="996" y2="436"/>
<circle class="pin" cx="980" cy="400" r="1.5"/>
<circle class="pin" cx="980" cy="464" r="1.5"/>
<line class="sym" x1="1012" y1="344" x2="1004" y2="344"/>
<line class="sym" x1="1020" y1="328" x2="1012" y2="344"/>
<line class="sym" x1="1036" y1="360" x2="1020" y2="328"/>
<line class="sym" x1="1052" y1="328" x2="1036" y2="360"/>
<line class="sym" x1="1068" y1="360" x2="1052" y2="328"/>
<line class="sym" x1="1084" y1="344" x2="1076" y2="344"/>
<line class="sym" x1="1076" y1="344" x2="1068" y2="360"/>
<circle class="pin" cx="1084" cy="344" r="1.5"/>
<circle class="pin" cx="1004" cy="344" r="1.5"/>
<line class="sym" x1="1668" y1="288" x2="1668" y2="336"/>
<line class="sym" x1="1636" y1="320" x2="1668" y2="320"/>
<line class="sym" x1="1660" y1="288" x2="1668" y2="288"/>
<line class="sym" x1="1636" y1="288" x2="1660" y2="284"/>
<line class="sym" x1="1636" y1="288" x2="1660" y2="292"/>
<line class="sym" x1="1660" y1="284" x2="1660" y2="292"/>
<line class="sym" x1="1636" y1="248" x2="1636" y2="264"/>
<line class="sym" x1="1636" y1="280" x2="1636" y2="296"/>
<line class="sym" x1="1636" y1="312" x2="1636" y2="328"/>
<line class="sym" x1="1620" y1="320" x2="1628" y2="320"/>
<line class="sym" x1="1628" y1="256" x2="1628" y2="320"/>
<line class="sym" x1="1668" y1="256" x2="1636" y2="256"/>
<line class="sym" x1="1668" y1="240" x2="1668" y2="256"/>
<circle class="pin" cx="1668" cy="240" r="1.5"/>
<circle class="pin" cx="1620" cy="320" r="1.5"/>
<circle class="pin" cx="1668" cy="336" r="1.5"/>
<line class="sym" x1="1620" y1="456" x2="1620" y2="464"/>
<line class="sym" x1="1604" y1="448" x2="1620" y2="456"/>
<line class="sym" x1="1636" y1="432" x2="1604" y2="448"/>
<line class="sym" x1="1604" y1="416" x2="1636" y2="432"/>
<line class="sym" x1="1636" y1="400" x2="1604" y2="416"/>
<line class="sym" x1="1620" y1="384" x2="1620" y2="392"/>
<line class="sym" x1="1620" y1="392" x2="1636" y2="400"/>
<circle class="pin" cx="1620" cy="384" r="1.5"/>
<circle class="pin" cx="1620" cy="464" r="1.5"/>
<line class="sym" x1="1756" y1="572" x2="1756" y2="580"/>
<line class="sym" x1="1740" y1="564" x2="1756" y2="572"/>
<line class="sym" x1="1772" y1="548" x2="1740" y2="564"/>
<line class="sym" x1="1740" y1="532" x2="1772" y2="548"/>
<line class="sym" x1="1772" y1="516" x2="1740" y2="532"/>
<line class="sym" x1="1756" y1="500" x2="1756" y2="508"/>
<line class="sym" x1="1756" y1="508" x2="1772" y2="516"/>
<circle class="pin" cx="1756" cy="500" r="1.5"/>
<circle class="pin" cx="1756" cy="580" r="1.5"/>
<line class="sym" x1="1516" y1="328" x2="1516" y2="336"/>
<line class="sym" x1="1500" y1="320" x2="1516" y2="328"/>
<line class="sym" x1="1532" y1="304" x2="1500" y2="320"/>
<line class="sym" x1="1500" y1="288" x2="1532" y2="304"/>
<line class="sym" x1="1532" y1="272" x2="1500" y2="288"/>
<line class="sym" x1="1516" y1="256" x2="1516" y2="264"/>
<line class="sym" x1="1516" y1="264" x2="1532" y2="272"/>
<circle class="pin" cx="1516" cy="256" r="1.5"/>
<circle class="pin" cx="1516" cy="336" r="1.5"/>
<line class="sym" x1="1388" y1="276" x2="1404" y2="276"/>
<line class="sym" x1="1388" y1="316" x2="1404" y2="316"/>
<line class="sym" x1="1396" y1="268" x2="1396" y2="284"/>
<line class="sym" x1="1396" y1="336" x2="1396" y2="328"/>
<line class="sym" x1="1396" y1="256" x2="1396" y2="264"/>
<ellipse class="sym" cx="1396" cy="296" rx="32" ry="32"/>
<circle class="pin" cx="1396" cy="256" r="1.5"/>
<circle class="pin" cx="1396" cy="336" r="1.5"/>
<text class="t-flag" x="240" y="343" text-anchor="end" font-size="11">DIV</text>
<polygon class="gnd" points="286,460 298,460 292,470"/>
<polygon class="gnd" points="158,496 170,496 164,506"/>
<text class="t-flag" x="220" y="232" text-anchor="middle" font-size="11">V3V3</text>
<text class="t-flag" x="420" y="376" text-anchor="middle" font-size="11">I_SET</text>
<polygon class="gnd" points="462,508 474,508 468,518"/>
<text class="t-flag" x="776" y="363" text-anchor="end" font-size="11">I_SET</text>
<text class="t-flag" x="968" y="283" text-anchor="start" font-size="11">V3V3</text>
<polygon class="gnd" points="894,376 906,376 900,386"/>
<text class="t-flag" x="1128" y="171" text-anchor="start" font-size="11">V3V3</text>
<polygon class="gnd" points="1070,264 1082,264 1076,274"/>
<text class="t-flag" x="940" y="340" text-anchor="middle" font-size="11">OUTA</text>
<text class="t-flag" x="1124" y="347" text-anchor="start" font-size="11">STIM_GATE</text>
<text class="t-flag" x="760" y="536" text-anchor="middle" font-size="11">I_SENSE</text>
<text class="t-flag" x="1744" y="211" text-anchor="start" font-size="11">BONE_N</text>
<text class="t-flag" x="1476" y="323" text-anchor="end" font-size="11">STIM_GATE</text>
<polygon class="gnd" points="1750,580 1762,580 1756,590"/>
<text class="t-flag" x="1536" y="503" text-anchor="end" font-size="11">I_SENSE</text>
<text class="t-flag" x="1568" y="227" text-anchor="start" font-size="11">BONE_P</text>
<text class="t-flag" x="1568" y="371" text-anchor="start" font-size="11">BONE_N</text>
<polygon class="gnd" points="1390,336 1402,336 1396,346"/>
<text class="t-flag" x="1436" y="252" text-anchor="middle" font-size="11">BONE_P</text>
<text class="t-attr" x="312" y="260" text-anchor="start" font-size="14">R5</text>
<text class="t-attr" x="312" y="296" text-anchor="start" font-size="14">100k</text>
<text class="t-attr" x="312" y="404" text-anchor="start" font-size="14">R7</text>
<text class="t-attr" x="312" y="440" text-anchor="start" font-size="14">10k</text>
<text class="t-attr" x="188" y="416" text-anchor="start" font-size="14">V33</text>
<text class="t-attr" x="188" y="496" text-anchor="start" font-size="14">3.3</text>
<text class="t-attr" x="364" y="364" text-anchor="end" font-size="14" transform="rotate(-90,364,364)">R6</text>
<text class="t-attr" x="364" y="396" text-anchor="end" font-size="14" transform="rotate(-90,364,396)">10k</text>
<text class="t-attr" x="476" y="452" text-anchor="start" font-size="14">C12</text>
<text class="t-attr" x="476" y="500" text-anchor="start" font-size="14">100n</text>
<text class="t-attr" x="916" y="312" text-anchor="start" font-size="14">U3</text>
<text class="t-attr" x="916" y="376" text-anchor="start" font-size="14">OPAx333</text>
<text class="t-attr" x="1084" y="208" text-anchor="start" font-size="14">C13</text>
<text class="t-attr" x="1084" y="256" text-anchor="start" font-size="14">100n</text>
<text class="t-attr" x="988" y="408" text-anchor="start" font-size="14">C14</text>
<text class="t-attr" x="988" y="456" text-anchor="start" font-size="14">100p</text>
<text class="t-attr" x="1044" y="328" text-anchor="end" font-size="14" transform="rotate(-90,1044,328)">R8</text>
<text class="t-attr" x="1044" y="360" text-anchor="end" font-size="14" transform="rotate(-90,1044,360)">10k</text>
<text class="t-attr" x="1676" y="272" text-anchor="start" font-size="14">Q1</text>
<text class="t-attr" x="1676" y="312" text-anchor="start" font-size="14">N7002</text>
<text class="t-attr" x="1640" y="408" text-anchor="start" font-size="14">R9</text>
<text class="t-attr" x="1640" y="444" text-anchor="start" font-size="14">10Meg</text>
<text class="t-attr" x="1776" y="524" text-anchor="start" font-size="14">R10</text>
<text class="t-attr" x="1776" y="560" text-anchor="start" font-size="14">3k</text>
<text class="t-attr" x="1536" y="280" text-anchor="start" font-size="14">R_BONE</text>
<text class="t-attr" x="1536" y="316" text-anchor="start" font-size="14">10k</text>
<text class="t-attr" x="1420" y="256" text-anchor="start" font-size="14">V8</text>
<text class="t-attr" x="1420" y="336" text-anchor="start" font-size="14">8.0016</text>
<text class="t-comment" x="116" y="650" text-anchor="start" font-size="14"><tspan x="116" dy="0">4  ºãÁ÷µ÷½Ú  (CURRENT SET)</tspan></text>
<text class="t-comment" x="636" y="650" text-anchor="start" font-size="14"><tspan x="636" dy="0">5  ºãÁ÷¿ØÖÆ  (CURRENT CONTROL)</tspan></text>
<text class="t-comment" x="1356" y="650" text-anchor="start" font-size="14"><tspan x="1356" dy="0">6  BONE¸ºÔØ  (BONE LOAD)</tspan></text>
<text class="t-directive" x="100" y="640" text-anchor="start" font-size="14"><tspan x="100" dy="0">.include models/OPAx333.LIB</tspan></text>
<text class="t-directive" x="100" y="672" text-anchor="start" font-size="14"><tspan x="100" dy="0">.include models/2N7002_DIODES.lib</tspan></text>
<text class="t-directive" x="100" y="704" text-anchor="start" font-size="14"><tspan x="100" dy="0">.include solver.inc</tspan></text>
<text class="t-directive" x="100" y="736" text-anchor="start" font-size="14"><tspan x="100" dy="0">.op</tspan></text>
<text class="t-directive" x="100" y="768" text-anchor="start" font-size="14"><tspan x="100" dy="0">.options plotwinsize=0 numdgt=7</tspan></text>
</svg>
